<svg width="20" height="23" viewBox="0 0 20 23" fill="none" xmlns="http://www.w3.org/2000/svg">
<path d="M14.3692 0.821838C11.9218 1.64863 10.0145 2.47543 10.2864 6.0582C12.7338 5.507 14.913 4.12901 14.3692 0.821838ZM6.59643 5.79638C4.24006 5.79638 0.836426 7.89092 0.836426 11.8182C0.836426 17.3164 4.50188 22.8146 6.59643 22.8146C8.16733 22.8146 9.47643 21.7673 10.5237 21.7673C11.571 21.7673 12.6182 22.8146 14.1892 22.8146C16.2837 22.8146 18.6401 19.6727 19.1637 16.7927C17.331 15.4837 16.0219 14.6982 16.0219 12.3418C16.0219 10.7709 17.331 9.20002 18.9019 7.89093C18.1164 6.84366 16.5455 5.79638 14.9746 5.79638C13.4037 5.79638 11.7144 7.03926 10.5237 7.10547C9.47643 7.10547 8.16733 5.79638 6.59643 5.79638Z" fill="black"/>
</svg>
