<svg width="32" height="32" viewBox="0 0 32 32" fill="none" xmlns="http://www.w3.org/2000/svg">
<circle cx="16" cy="16" r="15.5" stroke="#DCDCDC"/>
<path d="M18.927 16.5581C18.9267 16.5585 18.926 16.5584 18.926 16.5578V15.834C18.926 15.6813 19.1107 15.6049 19.2186 15.7129L24.208 20.708C25.264 21.685 25.264 23.149 24.208 24.207C23.395 25.264 21.77 25.264 20.795 24.207L15.9128 19.395C15.7658 19.2501 15.8684 19 16.0747 19C16.2827 19 16.3845 19.2537 16.2341 19.3975L11.287 24.125C10.312 25.183 8.849 25.183 7.792 24.125C6.736 23.312 6.736 21.685 7.792 20.708L12.5956 15.824C12.7412 15.676 12.993 15.7791 12.993 15.9867C12.993 16.1952 12.7393 16.2979 12.5943 16.148L7.873 11.27C6.99606 10.5172 6.79548 9.47416 7.27126 8.58815C7.57124 8.02951 8.01901 7.52006 8.58023 7.22494C8.86341 7.07604 9.17856 6.99823 9.4985 6.99823C9.81844 6.99823 10.1336 7.07604 10.4168 7.22494C10.6174 7.33044 10.7977 7.46938 10.9503 7.63517C11.0759 7.77164 11.1905 7.91853 11.3226 8.04873L16.0059 12.6655C16.1526 12.8102 16.0502 13.06 15.8442 13.06C15.6364 13.06 15.5348 12.8067 15.6849 12.6631L20.714 7.85298C20.7251 7.84007 20.7362 7.8273 20.7473 7.81469C22.4619 5.87888 26.026 9.51473 24.127 11.27L18.9271 16.5579C18.927 16.558 18.927 16.558 18.927 16.5581Z" fill="#DCDCDC"/>
</svg>
