<svg width="48" height="48" viewBox="0 0 48 48" fill="none" xmlns="http://www.w3.org/2000/svg">
<path d="M29.08 24H26.28V34H22.14V24H20.14V20.48H22.14V18.2C22.14 16.56 22.9 14 26.34 14H29.4V17.44H27.16C26.8 17.44 26.28 17.64 26.28 18.4V20.48H29.46L29.08 24ZM24.8 4C19.4957 4 14.4086 6.10714 10.6579 9.85786C6.90719 13.6086 4.80005 18.6957 4.80005 24C4.80005 29.3043 6.90719 34.3914 10.6579 38.1421C14.4086 41.8929 19.4957 44 24.8 44C30.1044 44 35.1915 41.8929 38.9422 38.1421C42.6929 34.3914 44.8 29.3043 44.8 24C44.8 18.6957 42.6929 13.6086 38.9422 9.85786C35.1915 6.10714 30.1044 4 24.8 4Z" fill="#FF7555"/>
<path d="M29.08 24H26.28V34H22.14V24H20.14V20.48H22.14V18.2C22.14 16.56 22.9 14 26.34 14H29.4V17.44H27.16C26.8 17.44 26.28 17.64 26.28 18.4V20.48H29.46L29.08 24ZM24.8 4C19.4957 4 14.4086 6.10714 10.6579 9.85786C6.90719 13.6086 4.80005 18.6957 4.80005 24C4.80005 29.3043 6.90719 34.3914 10.6579 38.1421C14.4086 41.8929 19.4957 44 24.8 44C30.1044 44 35.1915 41.8929 38.9422 38.1421C42.6929 34.3914 44.8 29.3043 44.8 24C44.8 18.6957 42.6929 13.6086 38.9422 9.85786C35.1915 6.10714 30.1044 4 24.8 4Z" fill="url(#paint0_linear)"/>
<defs>
<linearGradient id="paint0_linear" x1="24.8001" y1="4" x2="-0.99995" y2="63" gradientUnits="userSpaceOnUse">
<stop stop-color="#FD297B"/>
<stop offset="1" stop-color="white" stop-opacity="0"/>
</linearGradient>
</defs>
</svg>
