<svg width="48" height="48" viewBox="0 0 48 48" fill="none" xmlns="http://www.w3.org/2000/svg">
<path d="M16.42 20.16C16.38 20.16 16.34 20.16 16.3 20.12C14.96 18.32 14.62 15.24 14.52 14.06C14.52 13.84 14.26 13.7 14.06 13.82C9.86 16.16 6 21.72 6 27.08C6 36.28 12.4 44 23.4 44C33.7 44 40.8 36.04 40.8 27.08C40.8 15.34 32.4 7.53997 24.94 4.01997C24.8965 3.99605 24.8471 3.98508 24.7975 3.98836C24.748 3.99164 24.7004 4.00903 24.6605 4.03848C24.6205 4.06793 24.5898 4.1082 24.572 4.15454C24.5542 4.20087 24.55 4.25134 24.56 4.29997C25.52 10.62 24.2 17.5 16.42 20.16Z" fill="#FD297B"/>
<path d="M16.42 20.16C16.38 20.16 16.34 20.16 16.3 20.12C14.96 18.32 14.62 15.24 14.52 14.06C14.52 13.84 14.26 13.7 14.06 13.82C9.86 16.16 6 21.72 6 27.08C6 36.28 12.4 44 23.4 44C33.7 44 40.8 36.04 40.8 27.08C40.8 15.34 32.4 7.53997 24.94 4.01997C24.8965 3.99605 24.8471 3.98508 24.7975 3.98836C24.748 3.99164 24.7004 4.00903 24.6605 4.03848C24.6205 4.06793 24.5898 4.1082 24.572 4.15454C24.5542 4.20087 24.55 4.25134 24.56 4.29997C25.52 10.62 24.2 17.5 16.42 20.16Z" fill="url(#paint0_linear)"/>
<defs>
<linearGradient id="paint0_linear" x1="24" y1="44" x2="24" y2="4" gradientUnits="userSpaceOnUse">
<stop stop-color="#FF7555"/>
<stop offset="1" stop-color="#FF7555" stop-opacity="0"/>
</linearGradient>
</defs>
</svg>
