<svg width="41" height="40" viewBox="0 0 41 40" fill="none" xmlns="http://www.w3.org/2000/svg">
<path fill-rule="evenodd" clip-rule="evenodd" d="M20.64 0C25.8515 0 30.8495 2.07026 34.5346 5.75535C38.2197 9.44044 40.29 14.4385 40.29 19.65C40.29 24.8615 38.2197 29.8596 34.5346 33.5446C30.8495 37.2297 25.8515 39.3 20.64 39.3C15.4285 39.3 10.4304 37.2297 6.74534 33.5446C3.06025 29.8596 0.98999 24.8615 0.98999 19.65C0.98999 14.4385 3.06025 9.44044 6.74534 5.75535C10.4304 2.07026 15.4285 0 20.64 0ZM29.24 24.32V14.96C29.24 12.8 27.48 11.06 25.32 11.06H15.96C13.8 11.06 12.06 12.8 12.06 14.96V24.32C12.06 26.48 13.8 28.24 15.96 28.24H25.32C27.5 28.24 29.24 26.48 29.24 24.32Z" fill="#FD297B"/>
<path fill-rule="evenodd" clip-rule="evenodd" d="M20.64 0C25.8515 0 30.8495 2.07026 34.5346 5.75535C38.2197 9.44044 40.29 14.4385 40.29 19.65C40.29 24.8615 38.2197 29.8596 34.5346 33.5446C30.8495 37.2297 25.8515 39.3 20.64 39.3C15.4285 39.3 10.4304 37.2297 6.74534 33.5446C3.06025 29.8596 0.98999 24.8615 0.98999 19.65C0.98999 14.4385 3.06025 9.44044 6.74534 5.75535C10.4304 2.07026 15.4285 0 20.64 0ZM29.24 24.32V14.96C29.24 12.8 27.48 11.06 25.32 11.06H15.96C13.8 11.06 12.06 12.8 12.06 14.96V24.32C12.06 26.48 13.8 28.24 15.96 28.24H25.32C27.5 28.24 29.24 26.48 29.24 24.32Z" fill="url(#paint0_linear)"/>
<g style="mix-blend-mode:multiply">
<path fill-rule="evenodd" clip-rule="evenodd" d="M20.7 15.4C20.1093 15.3598 19.5166 15.4413 18.9588 15.6397C18.4009 15.8381 17.8898 16.149 17.4572 16.5532C17.0245 16.9573 16.6796 17.4461 16.4437 17.9892C16.2079 18.5322 16.0862 19.118 16.0862 19.71C16.0862 20.3021 16.2079 20.8878 16.4437 21.4309C16.6796 21.9739 17.0245 22.4627 17.4572 22.8669C17.8898 23.271 18.4009 23.582 18.9588 23.7803C19.5166 23.9787 20.1093 24.0603 20.7 24.02C21.7688 23.9168 22.761 23.4192 23.4829 22.6242C24.2048 21.8292 24.6047 20.7939 24.6047 19.72C24.6047 18.6462 24.2048 17.6108 23.4829 16.8158C22.761 16.0208 21.7688 15.5232 20.7 15.42V15.4Z" stroke="#FF7555"/>
</g>
<path fill-rule="evenodd" clip-rule="evenodd" d="M25.6401 13.12C25.3923 13.1203 25.1502 13.1937 24.9439 13.3309C24.7376 13.4682 24.5764 13.6632 24.4804 13.8915C24.3843 14.1199 24.3577 14.3715 24.4039 14.6149C24.4501 14.8583 24.567 15.0827 24.7401 15.26C24.9801 15.5 25.3001 15.64 25.6401 15.64C25.9601 15.64 26.2801 15.5 26.5201 15.26C26.7497 15.0246 26.8783 14.7088 26.8783 14.38C26.8783 14.0512 26.7497 13.7353 26.5201 13.5C26.2882 13.2623 25.972 13.1258 25.6401 13.12Z" fill="#FD297B"/>
<defs>
<linearGradient id="paint0_linear" x1="15" y1="33" x2="38" y2="2" gradientUnits="userSpaceOnUse">
<stop stop-color="#FF7555"/>
<stop offset="1" stop-color="white" stop-opacity="0"/>
</linearGradient>
</defs>
</svg>
