<svg width="192" height="47" viewBox="0 0 192 47" fill="none" xmlns="http://www.w3.org/2000/svg">
<path d="M11.7267 18.6167C20.5392 15.5792 22.0392 7.66666 20.9142 0.391665C20.9142 0.129165 21.1392 -0.0583352 21.3642 0.0166648C29.8017 4.14166 39.2892 13.1417 39.2892 26.6417C39.2892 36.9917 31.2642 46.1417 19.6017 46.1417C15.4402 46.3309 11.3342 45.1289 7.9317 42.7253C4.52922 40.3217 2.02408 36.8535 0.811664 32.868C-0.400749 28.8825 -0.251382 24.6067 1.23619 20.7156C2.72376 16.8244 5.46482 13.5395 9.02672 11.3792C9.25172 11.2292 9.55172 11.3792 9.55172 11.6417C9.66422 13.0292 10.0392 16.5167 11.5767 18.6167H11.7267V18.6167Z" fill="white"/>
<path d="M61.6125 37.9125L62.25 37.1625L64.2375 43.4625L63.975 43.725C62.475 45.1125 60.225 45.825 57.3375 45.825H57.225C54.6 45.825 52.5375 45.075 51.1125 43.6875C49.6875 42.2625 48.9375 40.125 48.9375 37.425V20.25H43.875V13.3125H48.9375V4.95H56.7375V13.3125H62.925V20.25H56.7V35.7375C56.7 36.45 56.8875 38.7375 59.0625 38.7375C60.1875 38.7375 61.2375 38.325 61.6125 37.875V37.9125ZM65.7375 45.1125V13.35H73.5375V45.1125H65.7375V45.1125ZM69.6 0.375C70.5255 0.37503 71.4303 0.649026 72.2003 1.16246C72.9703 1.67589 73.5711 2.40577 73.927 3.26012C74.2828 4.11446 74.3778 5.05503 74.2 5.96328C74.0221 6.87153 73.5794 7.7068 72.9276 8.36383C72.2758 9.02086 71.4441 9.47023 70.5373 9.65531C69.6304 9.84039 68.6892 9.7529 67.832 9.40385C66.9748 9.05481 66.2402 8.45984 65.7207 7.69394C65.2011 6.92803 64.9199 6.02547 64.9125 5.1C64.9125 2.55 67.05 0.375 69.6 0.375ZM94.5 12.5625C101.25 12.5625 104.962 16.2375 104.962 22.95V45.075H97.1625V24.825C97.0125 21.225 95.2875 19.575 91.6125 19.575C88.3125 19.575 85.65 21.6 84.3 23.325V45.075H76.5V13.3875H84.3V16.7625C86.55 14.5875 90.15 12.6375 94.5 12.6375V12.5625ZM130.912 16.65V1.725H138.712V45.15H130.912V41.85C129.719 43.1089 128.283 44.1133 126.691 44.8028C125.1 45.4924 123.385 45.8528 121.65 45.8625C113.137 45.8625 107.437 39.1875 107.437 29.25C107.437 19.275 113.137 12.6 121.65 12.6C123.388 12.6079 125.107 12.9713 126.7 13.6678C128.293 14.3642 129.726 15.3791 130.912 16.65ZM130.912 23.3625C130.043 22.2303 128.932 21.3062 127.661 20.6575C126.389 20.0088 124.989 19.6518 123.562 19.6125C118.725 19.6125 115.5 23.475 115.5 29.25C115.5 34.9875 118.725 38.85 123.562 38.85C126.375 38.85 129.45 37.35 130.912 35.175V23.3625ZM156.937 12.6C166.162 12.6 172.575 19.725 172.575 29.85V31.9875H148.987C149.775 36.45 153.3 39.3 158.1 39.3C161.137 39.3 164.475 37.9875 166.387 36.075L166.912 35.625L170.625 40.95L170.25 41.2875C166.736 44.4031 162.155 46.042 157.462 45.8625C147.712 45.8625 140.85 39 140.85 29.2125C140.774 27.0516 141.136 24.8977 141.913 22.88C142.69 20.8623 143.867 19.0225 145.373 17.4709C146.879 15.9194 148.683 14.6882 150.677 13.8512C152.671 13.0141 154.813 12.5886 156.975 12.6H156.937ZM148.95 26.1H164.962C164.512 21.3375 160.575 19.1625 156.937 19.1625C151.462 19.1625 149.4 23.2875 148.95 26.1375V26.1ZM191.437 12.6H192V20.475L191.325 20.3625C190.762 20.25 190.05 20.175 189.337 20.175C186.825 20.175 183.337 21.9375 182.025 23.8125V45.075H174.225V13.35H182.062V16.875C184.65 14.175 188.062 12.6 191.437 12.6V12.6Z" fill="white"/>
</svg>
