<svg width="48" height="48" viewBox="0 0 48 48" fill="none" xmlns="http://www.w3.org/2000/svg">
<path fill-rule="evenodd" clip-rule="evenodd" d="M24 4C12.956 4 4 12.956 4 24C4 35.048 12.956 44 24 44C35.044 44 44 35.048 44 24C44 12.956 35.044 4 24 4ZM22.118 21.876V21.096C21.8467 21.0531 21.5727 21.0297 21.298 21.026C20.0057 21.0229 18.7462 21.4328 17.7034 22.196C16.6605 22.9592 15.8888 24.0357 15.5009 25.2684C15.113 26.5011 15.1292 27.8255 15.5471 29.0484C15.965 30.2712 16.7628 31.3285 17.824 32.066C17.0255 31.2118 16.4914 30.1447 16.2862 28.9935C16.081 27.8424 16.2134 26.6564 16.6675 25.5789C17.1215 24.5014 17.8778 23.5783 18.845 22.9213C19.8122 22.2642 20.949 21.9011 22.118 21.876ZM22.264 30.704C22.9775 30.7031 23.6632 30.4272 24.1784 29.9336C24.6936 29.44 24.9986 28.7668 25.03 28.054V14.836H27.444C27.3949 14.5601 27.3714 14.2802 27.374 14H24.072V27.204C24.0456 27.9203 23.7428 28.5986 23.2271 29.0964C22.7113 29.5942 22.0228 29.8729 21.306 29.874C20.8607 29.8701 20.4226 29.7604 20.028 29.554C20.548 30.274 21.378 30.7 22.264 30.704ZM31.954 19.322V18.586C31.066 18.586 30.198 18.326 29.458 17.832C30.1061 18.5865 30.9823 19.1095 31.954 19.322ZM29.458 17.832C28.729 17.0026 28.3266 15.9363 28.326 14.832H27.446C27.676 16.066 28.402 17.152 29.458 17.832ZM21.298 24.33C20.6801 24.3338 20.0812 24.5438 19.5964 24.9269C19.1116 25.3099 18.7686 25.844 18.622 26.4442C18.4754 27.0444 18.5335 27.6765 18.7872 28.2399C19.0408 28.8033 19.4754 29.2658 20.022 29.554C19.6831 29.0837 19.5005 28.5187 19.5001 27.939C19.4996 27.3593 19.6813 26.7941 20.0196 26.3232C20.3578 25.8524 20.8354 25.4997 21.3849 25.315C21.9344 25.1303 22.5281 25.123 23.082 25.294V21.934C22.8112 21.8934 22.5378 21.872 22.264 21.87H22.118V24.426C21.8508 24.3543 21.5745 24.3219 21.298 24.33ZM31.954 19.322V21.876C30.309 21.8728 28.7068 21.3522 27.374 20.388V27.102C27.3703 28.7107 26.7288 30.2522 25.5901 31.3886C24.4515 32.525 22.9087 33.1635 21.3 33.164C20.0554 33.166 18.8409 32.7816 17.824 32.064C18.6531 32.9559 19.7315 33.5774 20.9188 33.8476C22.1061 34.1178 23.3473 34.0242 24.4807 33.5789C25.614 33.1336 26.587 32.3574 27.2729 31.3512C27.9588 30.3451 28.3257 29.1557 28.326 27.938V21.244C29.664 22.204 31.268 22.716 32.914 22.714V19.424C32.592 19.424 32.27 19.388 31.954 19.322ZM27.374 27.102V20.388C28.7111 21.3474 30.3163 21.8617 31.962 21.858V19.3C30.99 19.0946 30.1111 18.5786 29.458 17.83C28.9362 17.4929 28.4885 17.0531 28.1422 16.5373C27.7959 16.0215 27.5584 15.4406 27.444 14.83H25.03V28.05C25.0069 28.6257 24.805 29.1798 24.4524 29.6355C24.0998 30.0911 23.614 30.4255 23.0625 30.5923C22.511 30.759 21.9213 30.7498 21.3753 30.5659C20.8293 30.3819 20.3542 30.0324 20.016 29.566C19.4682 29.2783 19.0325 28.8155 18.7781 28.2515C18.5238 27.6875 18.4655 27.0545 18.6124 26.4535C18.7594 25.8525 19.1033 25.3179 19.5892 24.9349C20.0751 24.5519 20.6753 24.3425 21.294 24.34C21.57 24.342 21.846 24.386 22.11 24.468V21.912C20.9352 21.9323 19.7917 22.2938 18.8189 22.9526C17.846 23.6114 17.0858 24.5389 16.6308 25.6222C16.1759 26.7055 16.0459 27.8977 16.2567 29.0536C16.4675 30.2094 17.01 31.279 17.818 32.132C18.8442 32.8256 20.0596 33.1853 21.298 33.162C22.907 33.162 24.4504 32.5238 25.5894 31.3873C26.7285 30.2509 27.3703 28.709 27.374 27.1V27.102Z" fill="#FF7555"/>
<path fill-rule="evenodd" clip-rule="evenodd" d="M24 4C12.956 4 4 12.956 4 24C4 35.048 12.956 44 24 44C35.044 44 44 35.048 44 24C44 12.956 35.044 4 24 4ZM22.118 21.876V21.096C21.8467 21.0531 21.5727 21.0297 21.298 21.026C20.0057 21.0229 18.7462 21.4328 17.7034 22.196C16.6605 22.9592 15.8888 24.0357 15.5009 25.2684C15.113 26.5011 15.1292 27.8255 15.5471 29.0484C15.965 30.2712 16.7628 31.3285 17.824 32.066C17.0255 31.2118 16.4914 30.1447 16.2862 28.9935C16.081 27.8424 16.2134 26.6564 16.6675 25.5789C17.1215 24.5014 17.8778 23.5783 18.845 22.9213C19.8122 22.2642 20.949 21.9011 22.118 21.876ZM22.264 30.704C22.9775 30.7031 23.6632 30.4272 24.1784 29.9336C24.6936 29.44 24.9986 28.7668 25.03 28.054V14.836H27.444C27.3949 14.5601 27.3714 14.2802 27.374 14H24.072V27.204C24.0456 27.9203 23.7428 28.5986 23.2271 29.0964C22.7113 29.5942 22.0228 29.8729 21.306 29.874C20.8607 29.8701 20.4226 29.7604 20.028 29.554C20.548 30.274 21.378 30.7 22.264 30.704ZM31.954 19.322V18.586C31.066 18.586 30.198 18.326 29.458 17.832C30.1061 18.5865 30.9823 19.1095 31.954 19.322ZM29.458 17.832C28.729 17.0026 28.3266 15.9363 28.326 14.832H27.446C27.676 16.066 28.402 17.152 29.458 17.832ZM21.298 24.33C20.6801 24.3338 20.0812 24.5438 19.5964 24.9269C19.1116 25.3099 18.7686 25.844 18.622 26.4442C18.4754 27.0444 18.5335 27.6765 18.7872 28.2399C19.0408 28.8033 19.4754 29.2658 20.022 29.554C19.6831 29.0837 19.5005 28.5187 19.5001 27.939C19.4996 27.3593 19.6813 26.7941 20.0196 26.3232C20.3578 25.8524 20.8354 25.4997 21.3849 25.315C21.9344 25.1303 22.5281 25.123 23.082 25.294V21.934C22.8112 21.8934 22.5378 21.872 22.264 21.87H22.118V24.426C21.8508 24.3543 21.5745 24.3219 21.298 24.33ZM31.954 19.322V21.876C30.309 21.8728 28.7068 21.3522 27.374 20.388V27.102C27.3703 28.7107 26.7288 30.2522 25.5901 31.3886C24.4515 32.525 22.9087 33.1635 21.3 33.164C20.0554 33.166 18.8409 32.7816 17.824 32.064C18.6531 32.9559 19.7315 33.5774 20.9188 33.8476C22.1061 34.1178 23.3473 34.0242 24.4807 33.5789C25.614 33.1336 26.587 32.3574 27.2729 31.3512C27.9588 30.3451 28.3257 29.1557 28.326 27.938V21.244C29.664 22.204 31.268 22.716 32.914 22.714V19.424C32.592 19.424 32.27 19.388 31.954 19.322ZM27.374 27.102V20.388C28.7111 21.3474 30.3163 21.8617 31.962 21.858V19.3C30.99 19.0946 30.1111 18.5786 29.458 17.83C28.9362 17.4929 28.4885 17.0531 28.1422 16.5373C27.7959 16.0215 27.5584 15.4406 27.444 14.83H25.03V28.05C25.0069 28.6257 24.805 29.1798 24.4524 29.6355C24.0998 30.0911 23.614 30.4255 23.0625 30.5923C22.511 30.759 21.9213 30.7498 21.3753 30.5659C20.8293 30.3819 20.3542 30.0324 20.016 29.566C19.4682 29.2783 19.0325 28.8155 18.7781 28.2515C18.5238 27.6875 18.4655 27.0545 18.6124 26.4535C18.7594 25.8525 19.1033 25.3179 19.5892 24.9349C20.0751 24.5519 20.6753 24.3425 21.294 24.34C21.57 24.342 21.846 24.386 22.11 24.468V21.912C20.9352 21.9323 19.7917 22.2938 18.8189 22.9526C17.846 23.6114 17.0858 24.5389 16.6308 25.6222C16.1759 26.7055 16.0459 27.8977 16.2567 29.0536C16.4675 30.2094 17.01 31.279 17.818 32.132C18.8442 32.8256 20.0596 33.1853 21.298 33.162C22.907 33.162 24.4504 32.5238 25.5894 31.3873C26.7285 30.2509 27.3703 28.709 27.374 27.1V27.102Z" fill="url(#paint0_linear)"/>
<defs>
<linearGradient id="paint0_linear" x1="24" y1="4" x2="-2" y2="57" gradientUnits="userSpaceOnUse">
<stop stop-color="#FD297B"/>
<stop offset="1" stop-color="white" stop-opacity="0"/>
</linearGradient>
</defs>
</svg>
