<svg width="40" height="40" viewBox="0 0 40 40" fill="none" xmlns="http://www.w3.org/2000/svg">
<path d="M27.96 15.92V16.46C27.968 17.9934 27.6718 19.5132 27.0886 20.9315C26.5055 22.3497 25.6469 23.6383 24.5626 24.7226C23.4783 25.8069 22.1897 26.6655 20.7715 27.2486C19.3532 27.8318 17.8334 28.128 16.3 28.12C14.0667 28.1259 11.8791 27.487 10 26.28C12.1706 26.5255 14.3515 25.9157 16.08 24.58C15.2235 24.5671 14.3925 24.2862 13.7038 23.7769C13.015 23.2675 12.5032 22.5552 12.24 21.74C12.84 21.86 13.5 21.82 14.1 21.66C13.1733 21.4756 12.3386 20.9768 11.7373 20.248C11.136 19.5191 10.8049 18.6049 10.8 17.66V17.6C11.38 17.9 12 18.08 12.66 18.1C11.7911 17.5192 11.1768 16.6286 10.9426 15.61C10.7084 14.5915 10.872 13.5219 11.4 12.62C12.429 13.8907 13.7142 14.9304 15.1719 15.6713C16.6295 16.4122 18.2269 16.8377 19.86 16.92C19.6405 16.0357 19.7218 15.1035 20.091 14.2706C20.4603 13.4376 21.0964 12.7514 21.8991 12.3202C22.7018 11.8891 23.6252 11.7376 24.5235 11.8897C25.4219 12.0417 26.244 12.4887 26.86 13.16C27.76 12.98 28.66 12.66 29.46 12.16C29.14 13.12 28.5 13.94 27.66 14.44C28.46 14.34 29.26 14.12 30 13.8C29.44 14.62 28.76 15.34 27.96 15.92ZM20 0C14.6957 0 9.60859 2.10714 5.85786 5.85786C2.10714 9.60859 0 14.6957 0 20C0 25.3043 2.10714 30.3914 5.85786 34.1421C9.60859 37.8929 14.6957 40 20 40C25.3043 40 30.3914 37.8929 34.1421 34.1421C37.8929 30.3914 40 25.3043 40 20C40 14.6957 37.8929 9.60859 34.1421 5.85786C30.3914 2.10714 25.3043 0 20 0Z" fill="#FF7555"/>
<path d="M27.96 15.92V16.46C27.968 17.9934 27.6718 19.5132 27.0886 20.9315C26.5055 22.3497 25.6469 23.6383 24.5626 24.7226C23.4783 25.8069 22.1897 26.6655 20.7715 27.2486C19.3532 27.8318 17.8334 28.128 16.3 28.12C14.0667 28.1259 11.8791 27.487 10 26.28C12.1706 26.5255 14.3515 25.9157 16.08 24.58C15.2235 24.5671 14.3925 24.2862 13.7038 23.7769C13.015 23.2675 12.5032 22.5552 12.24 21.74C12.84 21.86 13.5 21.82 14.1 21.66C13.1733 21.4756 12.3386 20.9768 11.7373 20.248C11.136 19.5191 10.8049 18.6049 10.8 17.66V17.6C11.38 17.9 12 18.08 12.66 18.1C11.7911 17.5192 11.1768 16.6286 10.9426 15.61C10.7084 14.5915 10.872 13.5219 11.4 12.62C12.429 13.8907 13.7142 14.9304 15.1719 15.6713C16.6295 16.4122 18.2269 16.8377 19.86 16.92C19.6405 16.0357 19.7218 15.1035 20.091 14.2706C20.4603 13.4376 21.0964 12.7514 21.8991 12.3202C22.7018 11.8891 23.6252 11.7376 24.5235 11.8897C25.4219 12.0417 26.244 12.4887 26.86 13.16C27.76 12.98 28.66 12.66 29.46 12.16C29.14 13.12 28.5 13.94 27.66 14.44C28.46 14.34 29.26 14.12 30 13.8C29.44 14.62 28.76 15.34 27.96 15.92ZM20 0C14.6957 0 9.60859 2.10714 5.85786 5.85786C2.10714 9.60859 0 14.6957 0 20C0 25.3043 2.10714 30.3914 5.85786 34.1421C9.60859 37.8929 14.6957 40 20 40C25.3043 40 30.3914 37.8929 34.1421 34.1421C37.8929 30.3914 40 25.3043 40 20C40 14.6957 37.8929 9.60859 34.1421 5.85786C30.3914 2.10714 25.3043 0 20 0Z" fill="url(#paint0_linear)"/>
<defs>
<linearGradient id="paint0_linear" x1="20" y1="-9.23872e-07" x2="-11" y2="56" gradientUnits="userSpaceOnUse">
<stop stop-color="#FD297B"/>
<stop offset="1" stop-color="white" stop-opacity="0"/>
</linearGradient>
</defs>
</svg>
