<svg width="24" height="24" viewBox="0 0 24 24" fill="none" xmlns="http://www.w3.org/2000/svg">
<path d="M19.08 18.468C18.768 17.508 17.868 16.8 16.8 16.8H15.6V13.2C15.6 12.8817 15.4736 12.5765 15.2485 12.3515C15.0235 12.1264 14.7183 12 14.4 12H7.2V9.6H9.6C9.91826 9.6 10.2235 9.47357 10.4485 9.24853C10.6736 9.02348 10.8 8.71826 10.8 8.4V6H13.2C13.8365 6 14.447 5.74714 14.8971 5.29706C15.3471 4.84697 15.6 4.23652 15.6 3.6V3.108C19.116 4.524 21.6 7.968 21.6 12C21.6 14.496 20.64 16.764 19.08 18.468ZM10.8 21.516C6.06 20.928 2.4 16.896 2.4 12C2.4 11.256 2.496 10.536 2.652 9.852L8.4 15.6V16.8C8.4 17.4365 8.65286 18.047 9.10294 18.4971C9.55303 18.9471 10.1635 19.2 10.8 19.2V21.516ZM12 0C10.4241 0 8.86371 0.310389 7.4078 0.913446C5.95189 1.5165 4.62902 2.40042 3.51472 3.51472C1.26428 5.76516 0 8.8174 0 12C0 15.1826 1.26428 18.2348 3.51472 20.4853C4.62902 21.5996 5.95189 22.4835 7.4078 23.0866C8.86371 23.6896 10.4241 24 12 24C15.1826 24 18.2348 22.7357 20.4853 20.4853C22.7357 18.2348 24 15.1826 24 12C24 10.4241 23.6896 8.86371 23.0866 7.4078C22.4835 5.95189 21.5996 4.62902 20.4853 3.51472C19.371 2.40042 18.0481 1.5165 16.5922 0.913446C15.1363 0.310389 13.5759 0 12 0V0Z" fill="white"/>
</svg>
