<svg width="40" height="40" viewBox="0 0 40 40" fill="none" xmlns="http://www.w3.org/2000/svg">
<path d="M20 0C25.3043 0 30.3914 2.10714 34.1421 5.85786C37.8929 9.60859 40 14.6957 40 20C40 25.3043 37.8929 30.3914 34.1421 34.1421C30.3914 37.8929 25.3043 40 20 40C14.6957 40 9.60859 37.8929 5.85786 34.1421C2.10714 30.3914 0 25.3043 0 20C0 14.6957 2.10714 9.60859 5.85786 5.85786C9.60859 2.10714 14.6957 0 20 0ZM28.6 12.84C26.84 12.36 19.74 12.36 19.74 12.36C19.74 12.36 12.64 12.36 10.86 12.84C9.88 13.1 9.12 13.88 8.86 14.84C8.38 16.64 8.38 20.36 8.38 20.36C8.38 20.36 8.38 24.08 8.86 25.86C9.12 26.86 9.88 27.62 10.86 27.88C12.64 28.36 19.74 28.36 19.74 28.36C19.74 28.36 26.84 28.36 28.6 27.88C29.6 27.62 30.36 26.84 30.6 25.86C31.08 24.06 31.08 20.36 31.08 20.36C31.08 20.36 31.08 16.64 30.62 14.86C30.36 13.86 29.58 13.1 28.62 12.84H28.6ZM17.26 16.8L23.2 20.18L17.26 23.56V16.8Z" fill="#FF7555"/>
<path d="M20 0C25.3043 0 30.3914 2.10714 34.1421 5.85786C37.8929 9.60859 40 14.6957 40 20C40 25.3043 37.8929 30.3914 34.1421 34.1421C30.3914 37.8929 25.3043 40 20 40C14.6957 40 9.60859 37.8929 5.85786 34.1421C2.10714 30.3914 0 25.3043 0 20C0 14.6957 2.10714 9.60859 5.85786 5.85786C9.60859 2.10714 14.6957 0 20 0ZM28.6 12.84C26.84 12.36 19.74 12.36 19.74 12.36C19.74 12.36 12.64 12.36 10.86 12.84C9.88 13.1 9.12 13.88 8.86 14.84C8.38 16.64 8.38 20.36 8.38 20.36C8.38 20.36 8.38 24.08 8.86 25.86C9.12 26.86 9.88 27.62 10.86 27.88C12.64 28.36 19.74 28.36 19.74 28.36C19.74 28.36 26.84 28.36 28.6 27.88C29.6 27.62 30.36 26.84 30.6 25.86C31.08 24.06 31.08 20.36 31.08 20.36C31.08 20.36 31.08 16.64 30.62 14.86C30.36 13.86 29.58 13.1 28.62 12.84H28.6ZM17.26 16.8L23.2 20.18L17.26 23.56V16.8Z" fill="url(#paint0_linear)"/>
<defs>
<linearGradient id="paint0_linear" x1="20" y1="-5.96046e-07" x2="-5.42402e-07" y2="56" gradientUnits="userSpaceOnUse">
<stop stop-color="#FD297B"/>
<stop offset="1" stop-color="white" stop-opacity="0"/>
</linearGradient>
</defs>
</svg>
